<svg xmlns="http://www.w3.org/2000/svg" viewBox="0 0 512 512" role="img" aria-label="Chrona apple touch icon">
  <defs>
    <radialGradient id="chrona-apple-glow" cx="50%" cy="40%" r="60%">
      <stop offset="0%" stop-color="#9a4efb" stop-opacity="0.95" />
      <stop offset="45%" stop-color="#5a6ffb" stop-opacity="0.88" />
      <stop offset="100%" stop-color="#1b1f2f" stop-opacity="0.08" />
    </radialGradient>
    <linearGradient id="chrona-apple-ring" x1="25%" y1="15%" x2="80%" y2="85%">
      <stop offset="0%" stop-color="#9a4efb" />
      <stop offset="100%" stop-color="#2ec5ff" />
    </linearGradient>
    <linearGradient id="chrona-apple-hand" x1="30%" y1="20%" x2="78%" y2="90%">
      <stop offset="0%" stop-color="#9a4efb" />
      <stop offset="100%" stop-color="#2ec5ff" />
    </linearGradient>
  </defs>
  <circle cx="256" cy="234" r="190" fill="url(#chrona-apple-glow)" />
  <circle cx="256" cy="256" r="188" fill="#10131d" />
  <path
    d="M256 104a152 152 0 1 0 107.6 44.6"
    fill="none"
    stroke="url(#chrona-apple-ring)"
    stroke-width="56"
    stroke-linecap="round"
  />
  <path
    d="M256 104a152 152 0 0 0-152 152c0 32 10.3 61.6 27.7 85.6"
    fill="none"
    stroke="#151929"
    stroke-width="56"
    stroke-linecap="round"
    opacity="0.35"
  />
  <path
    d="M256 152c-11 0-20 9-20 20v92l-57.7-32.3a16 16 0 0 0-15.6 27.8l91.6 51.3a20 20 0 0 0 29.7-17.4V172c0-11-9-20-20-20z"
    fill="url(#chrona-apple-hand)"
  />
</svg>
