<svg xmlns="http://www.w3.org/2000/svg" viewBox="0 0 64 64" fill="none" role="img" aria-label="Chrona favicon">
  <defs>
    <radialGradient id="chrona-favicon-glow" cx="50%" cy="40%" r="70%">
      <stop offset="0%" stop-color="#9a4efb" stop-opacity="0.95" />
      <stop offset="50%" stop-color="#5a6ffb" stop-opacity="0.9" />
      <stop offset="100%" stop-color="#151929" stop-opacity="0.2" />
    </radialGradient>
    <linearGradient id="chrona-favicon-ring" x1="15%" y1="10%" x2="85%" y2="90%">
      <stop offset="0%" stop-color="#9a4efb" />
      <stop offset="100%" stop-color="#2ec5ff" />
    </linearGradient>
    <linearGradient id="chrona-favicon-hand" x1="25%" y1="20%" x2="80%" y2="90%">
      <stop offset="0%" stop-color="#9a4efb" />
      <stop offset="100%" stop-color="#2ec5ff" />
    </linearGradient>
  </defs>
  <rect width="64" height="64" rx="16" fill="#10131d" />
  <circle cx="32" cy="30" r="28" fill="url(#chrona-favicon-glow)" />
  <circle cx="32" cy="32" r="27" fill="#10131d" />
  <path
    d="M32 12a20 20 0 1 0 14.2 5.9"
    fill="none"
    stroke="url(#chrona-favicon-ring)"
    stroke-width="7"
    stroke-linecap="round"
  />
  <path
    d="M32 12a20 20 0 0 0-20 20c0 4.2 1.2 8.1 3.4 11.6"
    fill="none"
    stroke="#151929"
    stroke-width="7"
    stroke-linecap="round"
    opacity="0.35"
  />
  <path
    d="M32 16c-1.5 0-2.8 1.3-2.8 2.8v12.5l-7.8-4.4a2.8 2.8 0 1 0-2.7 4.8l12.3 6.9a3.2 3.2 0 0 0 4.8-2.8V18.8c0-1.5-1.3-2.8-2.8-2.8z"
    fill="url(#chrona-favicon-hand)"
  />
</svg>
