<svg xmlns="http://www.w3.org/2000/svg" viewBox="0 0 512 512" role="img" aria-label="Chrona maskable icon">
  <defs>
    <radialGradient id="chrona-maskable-glow" cx="50%" cy="40%" r="65%">
      <stop offset="0%" stop-color="#9a4efb" stop-opacity="0.95" />
      <stop offset="45%" stop-color="#5a6ffb" stop-opacity="0.88" />
      <stop offset="100%" stop-color="#1b1f2f" stop-opacity="0.12" />
    </radialGradient>
    <linearGradient id="chrona-maskable-ring" x1="25%" y1="15%" x2="80%" y2="85%">
      <stop offset="0%" stop-color="#9a4efb" />
      <stop offset="100%" stop-color="#2ec5ff" />
    </linearGradient>
    <linearGradient id="chrona-maskable-hand" x1="30%" y1="20%" x2="78%" y2="90%">
      <stop offset="0%" stop-color="#9a4efb" />
      <stop offset="100%" stop-color="#2ec5ff" />
    </linearGradient>
  </defs>
  <rect width="512" height="512" fill="#10131d" />
  <circle cx="256" cy="230" r="206" fill="url(#chrona-maskable-glow)" />
  <circle cx="256" cy="256" r="204" fill="#10131d" />
  <path
    d="M256 96a168 168 0 1 0 118.9 49.3"
    fill="none"
    stroke="url(#chrona-maskable-ring)"
    stroke-width="60"
    stroke-linecap="round"
  />
  <path
    d="M256 96a168 168 0 0 0-168 168c0 34.7 11.3 66.8 30.7 93"
    fill="none"
    stroke="#151929"
    stroke-width="60"
    stroke-linecap="round"
    opacity="0.35"
  />
  <path
    d="M256 148c-12.1 0-22 9.9-22 22v102l-66.8-37.3c-7.4-4.1-16.8-1.4-20.9 6.1-4.1 7.4-1.4 16.8 6.1 20.9l102.3 57.3a22 22 0 0 0 32.7-19.1V170c0-12.1-9.9-22-22-22z"
    fill="url(#chrona-maskable-hand)"
  />
</svg>
